<?xml version="1.0" encoding="UTF-8"?>
<svg version="1.1" xmlns="http://www.w3.org/2000/svg" width="307" height="307">
<path d="M0 0 C2.23341198 0.00315111 4.46548162 -0.02037131 6.69873047 -0.0456543 C46.41863806 -0.22071595 82.68056431 17.30671855 110.99951172 44.31567383 C111.85416016 45.10586914 112.70880859 45.89606445 113.58935547 46.71020508 C138.66528441 70.59770137 155.29477247 107.87859762 156.26391602 142.4781189 C156.31340543 145.42444146 156.32383158 148.3694669 156.31518555 151.31616211 C156.31203443 153.54957409 156.33555686 155.78164373 156.36083984 158.01489258 C156.5359015 197.73480017 139.008467 233.99672642 111.99951172 262.31567383 C111.20931641 263.17032227 110.41912109 264.0249707 109.60498047 264.90551758 C85.71748417 289.98144652 48.43658793 306.61093458 13.83706665 307.58007812 C10.89074409 307.62956754 7.94571864 307.63999369 4.99902344 307.63134766 C2.76561146 307.62819654 0.53354181 307.65171896 -1.69970703 307.67700195 C-41.41961463 307.85206361 -77.68154088 290.32462911 -106.00048828 263.31567383 C-106.85513672 262.52547852 -107.70978516 261.7352832 -108.59033203 260.92114258 C-133.66626098 237.03364628 -150.29574903 199.75275004 -151.26489258 165.15322876 C-151.314382 162.2069062 -151.32480814 159.26188075 -151.31616211 156.31518555 C-151.313011 154.08177357 -151.33653342 151.84970392 -151.36181641 149.61645508 C-151.53687806 109.89654748 -134.00944356 73.63462123 -107.00048828 45.31567383 C-106.21029297 44.46102539 -105.42009766 43.60637695 -104.60595703 42.72583008 C-77.99247872 14.78829812 -38.11523079 -0.1118356 0 0 Z " fill="#ECEDED" transform="translate(151.00048828125,-0.315673828125)"/>
<path d="M0 0 C1.37901489 0.01123901 1.37901489 0.01123901 2.78588867 0.02270508 C28.20226271 0.42273418 50.66954742 9.63168814 69.6875 26.25 C70.82445312 27.23419922 70.82445312 27.23419922 71.984375 28.23828125 C87.14742959 42.40057424 95.49692097 61.29147953 99.6875 81.25 C99.94901855 82.18912231 99.94901855 82.18912231 100.21582031 83.1472168 C105.4414837 106.44361367 97.73545278 133.2749595 85.2734375 152.95703125 C68.60395822 177.05797789 46.19584122 190.58548858 17.92578125 196.86328125 C-9.92742832 200.18953909 -35.81702704 194.11274824 -58.3125 177.25 C-59.24449219 176.55390625 -60.17648438 175.8578125 -61.13671875 175.140625 C-61.85472656 174.51671875 -62.57273438 173.8928125 -63.3125 173.25 C-63.3125 171.25 -63.3125 171.25 -61.66796875 169.59375 C-60.95253906 168.9853125 -60.23710938 168.376875 -59.5 167.75 C-58.79230469 167.1415625 -58.08460937 166.533125 -57.35546875 165.90625 C-55.3125 164.25 -55.3125 164.25 -52.3125 162.25 C-51.52488281 162.83007812 -50.73726562 163.41015625 -49.92578125 164.0078125 C-32.03676605 176.94508167 -12.51010575 183.78660759 9.6875 181.25 C23.43809999 178.74595639 35.9435342 171.10402702 44.6875 160.25 C49.5211958 153.20588878 53.65938221 145.58976024 55.6875 137.25 C56.0278125 135.8578125 56.0278125 135.8578125 56.375 134.4375 C57.52981301 122.65840726 56.79287104 112.84235725 49.0625 103.375 C41.42868014 95.50218394 32.19024355 93.2748236 21.6875 91.25 C22.326875 90.63125 22.96625 90.0125 23.625 89.375 C24.65049259 88.33791992 25.67048593 87.29539586 26.6875 86.25 C27.36554688 85.55648437 28.04359375 84.86296875 28.7421875 84.1484375 C39.77688307 72.42645985 47.55895617 59.43492306 48.25 43.0625 C47.97168563 34.71306894 45.13238486 28.69580796 39.625 22.5 C30.20782447 13.83864984 16.3830551 9.4509142 3.73046875 9.84375 C-7.02904814 11.28019385 -16.36848967 17.43692536 -23.3125 25.6015625 C-32.72167769 38.37695462 -36.76341646 53.20348569 -38.36328125 68.78125 C-38.48914612 69.99458008 -38.48914612 69.99458008 -38.61755371 71.23242188 C-39.75273776 82.91680773 -40.0258882 94.65566404 -40.41699219 106.38330078 C-40.52137056 109.44331068 -40.63535131 112.50286023 -40.75 115.5625 C-40.77715088 116.47418945 -40.80430176 117.38587891 -40.83227539 118.32519531 C-41.54620712 137.09041786 -49.07141711 148.47645129 -62.3125 161.25 C-64.27676697 162.96866334 -66.27899607 164.61231927 -68.3125 166.25 C-77.76353993 162.56750021 -84.29601189 148.01663218 -88.44433594 139.23388672 C-90.99028673 133.41600255 -92.72818699 127.38841113 -94.3125 121.25 C-94.68181641 119.84814453 -94.68181641 119.84814453 -95.05859375 118.41796875 C-100.50182835 92.77845682 -94.82550701 66.91886301 -81.0625 45 C-65.63209151 21.55105444 -42.63755151 7.13136279 -15.4765625 1.1328125 C-10.29234923 0.13298232 -5.26876068 -0.05727446 0 0 Z " fill="#BD2228" transform="translate(151.3125,54.75)"/>
<path d="M0 0 C2.23341198 0.00315111 4.46548162 -0.02037131 6.69873047 -0.0456543 C46.41863806 -0.22071595 82.68056431 17.30671855 110.99951172 44.31567383 C111.85416016 45.10586914 112.70880859 45.89606445 113.58935547 46.71020508 C138.66528441 70.59770137 155.29477247 107.87859762 156.26391602 142.4781189 C156.31340543 145.42444146 156.32383158 148.3694669 156.31518555 151.31616211 C156.31203443 153.54957409 156.33555686 155.78164373 156.36083984 158.01489258 C156.5359015 197.73480017 139.008467 233.99672642 111.99951172 262.31567383 C111.20931641 263.17032227 110.41912109 264.0249707 109.60498047 264.90551758 C85.71748417 289.98144652 48.43658793 306.61093458 13.83706665 307.58007812 C10.89074409 307.62956754 7.94571864 307.63999369 4.99902344 307.63134766 C2.76561146 307.62819654 0.53354181 307.65171896 -1.69970703 307.67700195 C-41.41961463 307.85206361 -77.68154088 290.32462911 -106.00048828 263.31567383 C-106.85513672 262.52547852 -107.70978516 261.7352832 -108.59033203 260.92114258 C-133.66626098 237.03364628 -150.29574903 199.75275004 -151.26489258 165.15322876 C-151.314382 162.2069062 -151.32480814 159.26188075 -151.31616211 156.31518555 C-151.313011 154.08177357 -151.33653342 151.84970392 -151.36181641 149.61645508 C-151.53687806 109.89654748 -134.00944356 73.63462123 -107.00048828 45.31567383 C-106.21029297 44.46102539 -105.42009766 43.60637695 -104.60595703 42.72583008 C-77.99247872 14.78829812 -38.11523079 -0.1118356 0 0 Z M-31.00048828 18.31567383 C-32.22203613 18.66227051 -32.22203613 18.66227051 -33.46826172 19.01586914 C-70.98985556 30.01095469 -101.92891358 53.83416167 -120.85986328 88.20483398 C-138.18622873 120.80947549 -142.24466724 158.91417555 -131.4362793 194.36376953 C-124.39673681 216.06084803 -113.65295322 233.75318186 -98.00048828 250.31567383 C-97.20384766 251.18836914 -96.40720703 252.06106445 -95.58642578 252.96020508 C-73.7258616 276.04258327 -40.36549411 291.29215278 -8.55664062 292.43994141 C-4.66258376 292.52179617 -0.77026491 292.56222981 3.12451172 292.56567383 C4.15780609 292.56668594 4.15780609 292.56668594 5.2119751 292.56771851 C15.4834765 292.5517509 25.04215298 292.05723736 34.99951172 289.31567383 C35.68078125 289.13875 36.36205078 288.96182617 37.06396484 288.77954102 C74.45018967 279.03758594 104.49275621 255.64596904 124.27294922 222.57348633 C142.24026393 191.24618374 147.10007116 153.19422582 137.99951172 118.31567383 C128.24712938 83.26575835 104.62181224 51.53571362 73.01123047 33.39770508 C42.53711111 16.53944144 3.18570293 8.59181596 -31.00048828 18.31567383 Z " fill="#EDEDED" transform="translate(151.00048828125,-0.315673828125)"/>
<path d="M0 0 C0 2.97 0 5.94 0 9 C-1.07378906 9.50789063 -2.14757812 10.01578125 -3.25390625 10.5390625 C-19.11005023 18.15730607 -28.78491165 26.95166737 -35 44 C-37.52948076 52.06271992 -39.18754687 60.12600111 -40.05078125 68.53125 C-40.17664612 69.74458008 -40.17664612 69.74458008 -40.30505371 70.98242188 C-41.44023776 82.66680773 -41.7133882 94.40566404 -42.10449219 106.13330078 C-42.20887056 109.19331068 -42.32285131 112.25286023 -42.4375 115.3125 C-42.46465088 116.22418945 -42.49180176 117.13587891 -42.51977539 118.07519531 C-43.23370712 136.84041786 -50.75891711 148.22645129 -64 161 C-65.96426697 162.71866334 -67.96649607 164.36231927 -70 166 C-79.45103993 162.31750021 -85.98351189 147.76663218 -90.13183594 138.98388672 C-92.67778673 133.16600255 -94.41568699 127.13841113 -96 121 C-96.36931641 119.59814453 -96.36931641 119.59814453 -96.74609375 118.16796875 C-102.18932835 92.52845682 -96.51300701 66.66886301 -82.75 44.75 C-68.32116006 22.82309623 -47.17579658 8.65071846 -22 2 C-20.60974609 1.63068359 -20.60974609 1.63068359 -19.19140625 1.25390625 C-12.80629804 -0.22743885 -6.52881621 -0.20192215 0 0 Z " fill="#22316A" transform="translate(153,55)"/>
<path d="M0 0 C0.71592316 -0.00067474 1.43184631 -0.00134949 2.16946411 -0.00204468 C12.94245384 0.0140891 23.08571134 0.53420441 33.5625 3.25 C34.54984131 3.48348145 34.54984131 3.48348145 35.55712891 3.72167969 C52.72453667 7.80663399 69.48276956 15.60075695 83.5625 26.25 C84.45582031 26.92289063 85.34914062 27.59578125 86.26953125 28.2890625 C108.31991664 45.63915115 124.14870656 67.85672638 133.5625 94.25 C133.94148438 95.30445312 134.32046875 96.35890625 134.7109375 97.4453125 C142.26710017 120.1138005 143.54480212 146.06790743 137.5625 169.25 C137.26448486 170.4258667 137.26448486 170.4258667 136.96044922 171.62548828 C132.18332143 189.971806 124.69529475 205.92614478 113.5625 221.25 C112.92828125 222.12914062 112.2940625 223.00828125 111.640625 223.9140625 C89.76257324 252.61731845 57.49881845 270.91542565 22.0546875 276.8359375 C16.24018448 277.50519752 10.38380106 277.43600439 4.53833008 277.43530273 C2.52876705 277.43746899 0.51924292 277.45592114 -1.49023438 277.47460938 C-14.08810771 277.49314475 -26.31398706 276.38325841 -38.375 272.5625 C-39.21708008 272.30049805 -40.05916016 272.03849609 -40.92675781 271.76855469 C-77.18584445 260.16619489 -106.64303204 234.85557558 -124.2734375 201.10888672 C-139.99444916 169.15390759 -143.63521892 131.11066866 -132.54711914 97.09814453 C-121.74376324 65.75938674 -102.08499914 39.66603279 -74.4375 21.25 C-73.47714844 20.60546875 -72.51679687 19.9609375 -71.52734375 19.296875 C-50.01503397 5.86302754 -25.06950986 0.02119998 0 0 Z M-34.4375 9.25 C-35.44441895 9.52287842 -35.44441895 9.52287842 -36.47167969 9.80126953 C-63.18163282 17.25474523 -88.84742093 34.52911629 -105.375 56.8125 C-105.89151123 57.50794922 -106.40802246 58.20339844 -106.94018555 58.91992188 C-128.40827093 88.31525075 -137.26321434 123.25979195 -131.84106445 159.27905273 C-128.24906496 181.26494265 -120.17800565 201.5594019 -106.4375 219.25 C-105.32568359 220.69246094 -105.32568359 220.69246094 -104.19140625 222.1640625 C-81.67582273 250.49389549 -49.33119614 267.99923516 -13.4375 272.25 C24.78601258 274.8728149 60.59083978 264.88822768 89.6875 239.5546875 C109.14142896 222.27575075 123.55261814 200.39973941 130.5625 175.25 C130.86800781 174.16847656 131.17351562 173.08695313 131.48828125 171.97265625 C137.18079437 150.57851926 137.25815172 123.37555461 130.5625 102.25 C130.22347656 101.01765625 129.88445312 99.7853125 129.53515625 98.515625 C119.5964334 64.98569879 94.77124516 36.8636562 64.40625 20.21826172 C59.27056879 17.52121303 53.97737543 15.31596471 48.5625 13.25 C47.39332031 12.79753906 46.22414062 12.34507813 45.01953125 11.87890625 C19.95302453 2.82487328 -8.82410313 2.12345588 -34.4375 9.25 Z " fill="#213068" transform="translate(152.4375,14.75)"/>
<path d="M0 0 C0.6084375 0.4125 1.216875 0.825 1.84375 1.25 C18.62637695 12.30678952 34.71702888 18.98585144 55 20 C55 24.95 55 29.9 55 35 C33.09917746 36.1231191 12.38234497 28.02991528 -5 15 C-5.93199219 14.30390625 -6.86398438 13.6078125 -7.82421875 12.890625 C-8.54222656 12.26671875 -9.26023437 11.6428125 -10 11 C-10 10.34 -10 9.68 -10 9 C-8.3203125 7.34375 -8.3203125 7.34375 -6.125 5.5 C-4.00964496 3.71066742 -1.95980876 1.95980876 0 0 Z " fill="#213169" transform="translate(98,217)"/>
<path d="M0 0 C2.64 0 5.28 0 8 0 C8.33659249 2.41625321 8.66938388 4.83292808 9 7.25 C9.09539062 7.93191406 9.19078125 8.61382812 9.2890625 9.31640625 C9.7345226 12.59371988 10 15.68384153 10 19 C8.02 19.33 6.04 19.66 4 20 C3.505 15.05 3.505 15.05 3 10 C2.34 13.3 1.68 16.6 1 20 C-0.65 20 -2.3 20 -4 20 C-4.99 17.36 -5.98 14.72 -7 12 C-7 14.97 -7 17.94 -7 21 C-8.65 21 -10.3 21 -12 21 C-12.96205088 14.62641289 -13.10655578 8.44070471 -13 2 C-9.535 1.505 -9.535 1.505 -6 1 C-4.68 3.97 -3.36 6.94 -2 10 C-1.34 6.7 -0.68 3.4 0 0 Z " fill="#202F66" transform="translate(167,258)"/>
<path d="M0 0 C3.90027291 3.02562699 6.72763532 5.54266929 9 10 C9 15.31102532 7.67726009 18.21130778 4 22 C0.86128812 23.56935594 -1.53855822 23.35201103 -5 23 C-7.6875 20.75 -7.6875 20.75 -10 18 C-10.763125 17.236875 -11.52625 16.47375 -12.3125 15.6875 C-12.869375 15.130625 -13.42625 14.57375 -14 14 C-12.44198995 9.77956771 -9.28120091 7.46863832 -5.875 4.75 C-5.31167969 4.29109375 -4.74835937 3.8321875 -4.16796875 3.359375 C-2.78377401 2.23325047 -1.39256589 1.11575615 0 0 Z " fill="#243269" transform="translate(59,208)"/>
<path d="M0 0 C4.57627119 3.15254237 4.57627119 3.15254237 6 6 C6.62547746 10.55705006 6.2290646 13.29874719 3.5 16.9375 C1.09151596 19.46555417 -0.55509521 20.50114832 -4.0625 20.6875 C-8.29660406 19.94821199 -10.03959109 19.05011827 -13 16 C-14.5547669 12.89046621 -14.28644437 10.43733239 -14 7 C-12.35322647 3.88289296 -10.92529859 1.70939558 -8.125 -0.4375 C-5.05481082 -1.25019714 -3.04671934 -0.87049124 0 0 Z " fill="#233169" transform="translate(217,44)"/>
<path d="M0 0 C2.9375 0.25 2.9375 0.25 6 1 C6.66 1.99 7.32 2.98 8 4 C8.804375 4 9.60875 4 10.4375 4 C13 4 13 4 14.875 5.125 C16 7 16 7 16 9.5625 C14.6044759 14.35961411 12.35262017 18.60728484 10 23 C7.34508345 21.76682568 4.70223708 20.51492074 2.0625 19.25 C1.30775391 18.90195313 0.55300781 18.55390625 -0.22460938 18.1953125 C-0.94326172 17.84726563 -1.66191406 17.49921875 -2.40234375 17.140625 C-3.06741943 16.82641602 -3.73249512 16.51220703 -4.41772461 16.18847656 C-6 15 -6 15 -6.79858398 13.02514648 C-7.10314697 9.96290414 -5.75798865 8.35981178 -4.125 5.8125 C-3.57070313 4.93207031 -3.01640625 4.05164063 -2.4453125 3.14453125 C-1 1 -1 1 0 0 Z " fill="#212F67" transform="translate(41,95)"/>
<path d="M0 0 C2.6875 0.625 2.6875 0.625 4.6875 2.625 C5.3125 5.25 5.3125 5.25 5.6875 7.625 C8.3275 8.285 10.9675 8.945 13.6875 9.625 C11.8125 13.5 11.8125 13.5 10.6875 14.625 C8.99608344 14.53536938 7.30790398 14.37922324 5.625 14.1875 C4.70589844 14.08566406 3.78679688 13.98382813 2.83984375 13.87890625 C2.12957031 13.79511719 1.41929688 13.71132812 0.6875 13.625 C0.6875 14.285 0.6875 14.945 0.6875 15.625 C1.30625 15.934375 1.925 16.24375 2.5625 16.5625 C3.9375 17.25 5.3125 17.9375 6.6875 18.625 C6.0275 19.945 5.3675 21.265 4.6875 22.625 C-0.29844047 22.625 -2.37877742 20.62055463 -6.0625 17.625 C-6.66449219 17.14804688 -7.26648437 16.67109375 -7.88671875 16.1796875 C-9.36884779 15.00339461 -10.84160943 13.81531607 -12.3125 12.625 C-9.78541961 7.12488385 -6.20358237 1.17048724 0 0 Z " fill="#213067" transform="translate(57.3125,75.375)"/>
<path d="M0 0 C1.9375 0.8125 1.9375 0.8125 4 2 C5.28317892 5.84953676 5.06643637 8.94738135 5 13 C6.98 11.35 8.96 9.7 11 8 C11.99 9.32 12.98 10.64 14 12 C10.04 16.62 6.08 21.24 2 26 C-2 24 -2 24 -2.75 21.8125 C-3.04195342 18.52802399 -3.06462101 15.2956714 -3 12 C-4.65 13.98 -6.3 15.96 -8 18 C-9.32 17.01 -10.64 16.02 -12 15 C-10.38462556 11.10082032 -7.72075127 8.28706228 -4.875 5.25 C-4.40707031 4.74339844 -3.93914062 4.23679687 -3.45703125 3.71484375 C-2.30873459 2.47280859 -1.15491328 1.23588506 0 0 Z " fill="#223068" transform="translate(231,55)"/>
<path d="M0 0 C3.31648331 0.07488833 4.41192523 0.23295015 7.25 2.125 C8.625 4.375 8.625 4.375 8.375 6.4375 C8.1275 7.076875 7.88 7.71625 7.625 8.375 C7.625 10.37597632 7.68768253 12.37792042 7.8125 14.375 C7.625 17.375 7.625 17.375 6.390625 19.0390625 C3.17484611 21.47224033 -0.52862013 20.87489053 -4.375 20.375 C-6.9375 19.25 -6.9375 19.25 -8.375 17.375 C-8.88520728 13.29334173 -8.68861802 11.84542703 -6.375 8.375 C-6.375 7.364375 -6.375 6.35375 -6.375 5.3125 C-6.375 0.53001044 -4.27242956 0.07097059 0 0 Z " fill="#2B396E" transform="translate(165.375,27.625)"/>
<path d="M0 0 C0 1.32 0 2.64 0 4 C-2.61941217 5.74627478 -4.03824877 6.38722388 -7 7 C-6.38722388 9.96175123 -5.74627478 11.38058783 -4 14 C-1.41619823 14.25030977 -1.41619823 14.25030977 1 14 C-0.22880216 12.7058258 -0.22880216 12.7058258 -3 11 C-1.70700306 8.11562221 -0.34058637 6.12780579 2 4 C5.36591866 5.44253657 7.51047079 7.33264727 10 10 C9.67 10.99 9.34 11.98 9 13 C8.34 13 7.68 13 7 13 C6.3503125 14.423125 6.3503125 14.423125 5.6875 15.875 C4 19 4 19 1 21 C-3.11136265 21.45681807 -5.26502493 21.45731782 -8.8125 19.25 C-11.99187015 15.97979071 -12.81069137 14.13585179 -13.5625 9.625 C-12.86442341 5.12628418 -11.47463678 3.79073435 -7.95703125 1.08984375 C-5.22381018 -0.43224942 -3.05479605 -0.44704333 0 0 Z " fill="#233168" transform="translate(76,59)"/>
<path d="M0 0 C3 1 3 1 4.82421875 4.0546875 C5.45571529 5.32299844 6.07642765 6.59672339 6.6875 7.875 C7.00783203 8.51308594 7.32816406 9.15117187 7.65820312 9.80859375 C9.08290944 12.71876144 10 14.71997964 10 18 C5.78892722 19.26332183 3.4543291 19.00441956 -0.375 17.0625 C-1.59188424 16.39025121 -2.8033603 15.70765749 -4 15 C-3.484375 15.928125 -2.96875 16.85625 -2.4375 17.8125 C-1 21 -1 21 -2 24 C-2.99 24.33 -3.98 24.66 -5 25 C-6.31582063 22.73103368 -7.62775236 20.45996813 -8.9375 18.1875 C-9.31068359 17.54490234 -9.68386719 16.90230469 -10.06835938 16.24023438 C-11.63466635 13.51683576 -13.00369374 10.98891878 -14 8 C-11 6 -11 6 -8.1875 6.1875 C-4.81256717 7.047777 -2.04764834 8.33104972 1 10 C0.2575 8.6078125 0.2575 8.6078125 -0.5 7.1875 C-2 4 -2 4 -2 1 C-1.34 0.67 -0.68 0.34 0 0 Z " fill="#223068" transform="translate(210,243)"/>
<path d="M0 0 C3 0.5625 3 0.5625 5.375 2.5625 C7.63651355 6.73760194 7.67423269 8.84287115 7 13.5625 C3.35058994 17.40917547 0.31496321 18.45813784 -4.9375 18.875 C-7.90425121 18.82046413 -8.85859771 18.6531425 -11.4375 17 C-13.48289599 13.80918225 -13.86300711 11.32980436 -14 7.5625 C-13.34 6.5725 -12.68 5.5825 -12 4.5625 C-11.34 4.5625 -10.68 4.5625 -10 4.5625 C-9.67 6.8725 -9.34 9.1825 -9 11.5625 C-6.525 12.5525 -6.525 12.5525 -4 13.5625 C-4 12.9025 -4 12.2425 -4 11.5625 C-4.99 11.2325 -5.98 10.9025 -7 10.5625 C-7.32152515 7.02572336 -7.4131192 5.1662896 -5.375 2.1875 C-3 0.5625 -3 0.5625 0 0 Z " fill="#233269" transform="translate(273,117.4375)"/>
<path d="M0 0 C2.99363705 2.54777621 4.58161498 4.15029779 5.4453125 7.96875 C5.66185655 11.72218017 5.01308177 13.97122011 3.4375 17.4375 C1 20 1 20 -2.4375 21.1875 C-6 21 -6 21 -8.9375 18.5625 C-9.618125 17.716875 -10.29875 16.87125 -11 16 C-7.94152152 15.45627049 -5.11227195 15 -2 15 C-2 14.34 -2 13.68 -2 13 C-3.093125 13.0825 -4.18625 13.165 -5.3125 13.25 C-9 13 -9 13 -10.9375 11.3125 C-12.22581882 8.50851197 -12.60872071 7.04360356 -12 4 C-8.37701074 -0.06213947 -5.33477944 -0.95263919 0 0 Z " fill="#23326B" transform="translate(149,27)"/>
<path d="M0 0 C3.72600903 1.24200301 4.80429287 2.83985985 7.25 5.875 C7.97703125 6.75929688 8.7040625 7.64359375 9.453125 8.5546875 C9.96359375 9.36164063 10.4740625 10.16859375 11 11 C10.67 11.99 10.34 12.98 10 14 C9.01 14.33 8.02 14.66 7 15 C5.35 13.02 3.7 11.04 2 9 C1.01 9.495 1.01 9.495 0 10 C1.98 12.97 1.98 12.97 4 16 C2.02 16.99 2.02 16.99 0 18 C-1.65 16.35 -3.3 14.7 -5 13 C-5.31819148 16.15447553 -5.31819148 16.15447553 -2.9375 18.5 C-2.298125 19.325 -1.65875 20.15 -1 21 C-1.33 21.99 -1.66 22.98 -2 24 C-2.99 24.33 -3.98 24.66 -5 25 C-7.97 21.37 -10.94 17.74 -14 14 C-11.91527396 9.83054793 -9.56226094 7.57969245 -6.0625 4.6875 C-5.52431641 4.22021484 -4.98613281 3.75292969 -4.43164062 3.27148438 C-2.84765625 1.94921875 -2.84765625 1.94921875 0 0 Z " fill="#233068" transform="translate(249,72)"/>
<path d="M0 0 C2.28111212 0.96955945 3.21099133 1.95540812 4.72167969 3.90795898 C5.44677734 4.83705078 5.44677734 4.83705078 6.18652344 5.78491211 C6.67765625 6.43524414 7.16878906 7.08557617 7.67480469 7.75561523 C8.18140625 8.40208008 8.68800781 9.04854492 9.20996094 9.71459961 C12.92480469 14.53588604 12.92480469 14.53588604 12.92480469 16.81811523 C8.70079846 17.77811665 6.67579335 17.94367548 2.92480469 15.81811523 C1.60480469 15.81811523 0.28480469 15.81811523 -1.07519531 15.81811523 C-1.07519531 17.46811523 -1.07519531 19.11811523 -1.07519531 20.81811523 C-2.72519531 21.14811523 -4.37519531 21.47811523 -6.07519531 21.81811523 C-6.07519531 15.21811523 -6.07519531 8.61811523 -6.07519531 1.81811523 C-2.07519531 -0.18188477 -2.07519531 -0.18188477 0 0 Z " fill="#2F3C70" transform="translate(188.0751953125,254.181884765625)"/>
<path d="M0 0 C5.54050113 0.56825653 10.03715966 2.62886517 15 5 C14.84765625 6.765625 14.84765625 6.765625 14 9 C11.49609375 10.921875 11.49609375 10.921875 8.4375 12.75 C6.91962891 13.67039062 6.91962891 13.67039062 5.37109375 14.609375 C4.58863281 15.06828125 3.80617187 15.5271875 3 16 C5.31 16.99 7.62 17.98 10 19 C9.67 20.65 9.34 22.3 9 24 C6.51333391 23.26985978 4.03764005 22.5174505 1.5625 21.75 C0.85544922 21.54503906 0.14839844 21.34007813 -0.58007812 21.12890625 C-2.62109375 20.484375 -2.62109375 20.484375 -6 19 C-6.97265625 16.828125 -6.97265625 16.828125 -7 15 C-5.37615858 13.85252535 -3.75088944 12.7070709 -2.125 11.5625 C-1.22007812 10.92441406 -0.31515625 10.28632812 0.6171875 9.62890625 C3 8 3 8 5 7 C3.02 6.01 1.04 5.02 -1 4 C-0.67 2.68 -0.34 1.36 0 0 Z " fill="#222F67" transform="translate(189,33)"/>
<path d="M0 0 C6.6 2.31 13.2 4.62 20 7 C19.01 8.65 18.02 10.3 17 12 C15.33385392 12.04165365 13.66614608 12.04165365 12 12 C10.00966359 13.65373496 10.00966359 13.65373496 9 16 C9.40929986 18.05396726 9.40929986 18.05396726 10 20 C9.34 20.99 8.68 21.98 8 23 C7.34 23 6.68 23 6 23 C4.4609776 20.44696285 2.94404807 17.88460065 1.4375 15.3125 C0.99986328 14.59126953 0.56222656 13.87003906 0.11132812 13.12695312 C-3.02428707 7.71986866 -3.02428707 7.71986866 -2.90234375 4.10546875 C-2 2 -2 2 0 0 Z " fill="#2B386D" transform="translate(242,213)"/>
<path d="M0 0 C4.31468322 0.43878134 5.89163516 1.0707961 8.6875 4.375 C9 8.125 9 8.125 8.6875 11.375 C6.06562506 10.32625002 4.89378639 9.72568687 3.4375 7.25 C3.19 6.63125 2.9425 6.0125 2.6875 5.375 C1.6975 5.87 1.6975 5.87 0.6875 6.375 C1.24630859 7.04595703 1.24630859 7.04595703 1.81640625 7.73046875 C5.70257301 12.69671455 5.70257301 12.69671455 5.625 16.1875 C4.6875 18.375 4.6875 18.375 2.6875 20.375 C-1.81405596 20.98097869 -3.806598 20.69353089 -7.6875 18.25 C-10.54284176 15.12272093 -11.11891369 13.53710575 -11.3125 9.375 C-10.3225 9.045 -9.3325 8.715 -8.3125 8.375 C-5.3125 10.375 -5.3125 10.375 -4.625 12.5 C-4.521875 13.11875 -4.41875 13.7375 -4.3125 14.375 C-3.3225 14.375 -2.3325 14.375 -1.3125 14.375 C-1.9725 13.50875 -2.6325 12.6425 -3.3125 11.75 C-5.4495529 8.14372323 -5.87131444 6.47297257 -5.3125 2.375 C-3.3125 0.375 -3.3125 0.375 0 0 Z " fill="#212F66" transform="translate(81.3125,233.625)"/>
<path d="M0 0 C0.75796875 0.1134375 1.5159375 0.226875 2.296875 0.34375 C4.4375 0.75 4.4375 0.75 8 2 C9.22265625 4.578125 9.22265625 4.578125 10 7 C9.30132812 7.31453125 8.60265625 7.6290625 7.8828125 7.953125 C6.97273438 8.38109375 6.06265625 8.8090625 5.125 9.25 C4.22007812 9.66765625 3.31515625 10.0853125 2.3828125 10.515625 C-0.19972189 12.12441692 -0.95607186 13.19219328 -2 16 C-2.99 16 -3.98 16 -5 16 C-5 15.34 -5 14.68 -5 14 C-6.65 14.33 -8.3 14.66 -10 15 C-10.66 13.68 -11.32 12.36 -12 11 C-11.01 10.01 -10.02 9.02 -9 8 C-9.99 5.69 -10.98 3.38 -12 1 C-7.75707481 -1.82861679 -4.85470847 -0.8143382 0 0 Z " fill="#313E72" transform="translate(265,103)"/>
<path d="M0 0 C1.98 0 3.96 0 6 0 C6.66 3.63 7.32 7.26 8 11 C8.99 11 9.98 11 11 11 C11.33 12.32 11.66 13.64 12 15 C11.01 15 10.02 15 9 15 C9.33 16.65 9.66 18.3 10 20 C8.35 20 6.7 20 5 20 C4.67 19.01 4.34 18.02 4 17 C1.03 17.66 -1.94 18.32 -5 19 C-6.40661256 13.71113679 -5.48009972 10.96019944 -3.0625 6.125 C-2.21365234 4.39636719 -2.21365234 4.39636719 -1.34765625 2.6328125 C-0.90292969 1.76398437 -0.45820312 0.89515625 0 0 Z " fill="#26346C" transform="translate(124,29)"/>
<path d="M0 0 C2.97 0.495 2.97 0.495 6 1 C6.66 4.63 7.32 8.26 8 12 C9.65 9.03 11.3 6.06 13 3 C14.65 3 16.3 3 18 3 C17.41620491 7.49268392 15.60663918 10.98039042 13.3125 14.8125 C12.98572266 15.40998047 12.65894531 16.00746094 12.32226562 16.62304688 C11.30078125 18.33203125 11.30078125 18.33203125 9 21 C5.79296875 21.44921875 5.79296875 21.44921875 3 21 C1.09517749 19.09517749 1.29814562 15.86907669 0.9375 13.3125 C0.67259766 11.48138672 0.67259766 11.48138672 0.40234375 9.61328125 C0.04089618 6.36727152 -0.07514879 3.26145738 0 0 Z " fill="#213068" transform="translate(126,256)"/>
<path d="M0 0 C0.03738281 0.95261719 0.07476562 1.90523437 0.11328125 2.88671875 C0.17902344 4.14097656 0.24476562 5.39523438 0.3125 6.6875 C0.37050781 7.92886719 0.42851563 9.17023437 0.48828125 10.44921875 C1.01427031 14.09902073 2.08131796 15.93118364 4 19 C3 22 3 22 0.9375 23.1875 C0.298125 23.455625 -0.34125 23.72375 -1 24 C-1.8971875 22.4221875 -1.8971875 22.4221875 -2.8125 20.8125 C-6.30519631 15.81713203 -11.46735636 14.10259837 -17 12 C-17 11.34 -17 10.68 -17 10 C-14 8 -14 8 -10.9375 8.3125 C-8 9 -8 9 -6 10 C-6.0825 8.906875 -6.165 7.81375 -6.25 6.6875 C-6 3 -6 3 -4.125 1.0625 C-2 0 -2 0 0 0 Z " fill="#25336B" transform="translate(94,42)"/>
<path d="M0 0 C4.97209562 1.76429199 9.43438061 4.3939166 14 7 C13.67 8.65 13.34 10.3 13 12 C11.02 11.34 9.04 10.68 7 10 C6.7525 10.845625 6.505 11.69125 6.25 12.5625 C4.86026373 16.38427474 3.08879162 19.51868063 1 23 C-0.65 22.01 -2.3 21.02 -4 20 C-3.04682411 16.84718746 -2.08455705 14.13984436 -0.375 11.3125 C1.2555377 9.01863296 1.2555377 9.01863296 1 6 C0.01 5.34 -0.98 4.68 -2 4 C-1.34 2.68 -0.68 1.36 0 0 Z " fill="#233168" transform="translate(94,242)"/>
<path d="M0 0 C3.99926986 2.97088618 6.92118304 6.12948725 10 10 C11.98 8.35 13.96 6.7 16 5 C17.32 5.66 18.64 6.32 20 7 C18.52278578 10.45201639 16.56205999 12.64961936 13.875 15.25 C13.15054688 15.95640625 12.42609375 16.6628125 11.6796875 17.390625 C11.12539062 17.92171875 10.57109375 18.4528125 10 19 C5.33333333 14.33333333 0.66666667 9.66666667 -4 5 C-2.68 3.35 -1.36 1.7 0 0 Z " fill="#222F67" transform="translate(227,230)"/>
<path d="M0 0 C2.64 0 5.28 0 8 0 C8.33659249 2.41625321 8.66938388 4.83292808 9 7.25 C9.09539062 7.93191406 9.19078125 8.61382812 9.2890625 9.31640625 C9.7345226 12.59371988 10 15.68384153 10 19 C8.02 19.33 6.04 19.66 4 20 C3.67 16.7 3.34 13.4 3 10 C1.68 10.33 0.36 10.66 -1 11 C-1.14285714 3.57142857 -1.14285714 3.57142857 0 0 Z " fill="#27366C" transform="translate(167,258)"/>
<path d="M0 0 C0.33 0.66 0.66 1.32 1 2 C1.99 1.67 2.98 1.34 4 1 C3.34 2.65 2.68 4.3 2 6 C3.65 6.33 5.3 6.66 7 7 C7.12375 7.928125 7.12375 7.928125 7.25 8.875 C7.80583476 11.16088794 7.80583476 11.16088794 9.9375 12.1875 C10.618125 12.455625 11.29875 12.72375 12 13 C12.66 13.33 13.32 13.66 14 14 C13.34 15.32 12.68 16.64 12 18 C7.01405953 18 4.93372258 15.99555463 1.25 13 C0.64800781 12.52304688 0.04601563 12.04609375 -0.57421875 11.5546875 C-2.05634779 10.37839461 -3.52910943 9.19031607 -5 8 C-3.58208437 5.06553114 -2.01667393 2.56667591 0 0 Z " fill="#212E67" transform="translate(50,80)"/>
<path d="M0 0 C1.875 0.3125 1.875 0.3125 4 1 C4.66 1.99 5.32 2.98 6 4 C5.34644531 4.63615234 5.34644531 4.63615234 4.6796875 5.28515625 C0.54991517 9.35235627 -3.28041129 13.55463788 -7 18 C-8.65 17.01 -10.3 16.02 -12 15 C-10.54189378 11.60534645 -8.66233272 9.47748287 -6 6.9375 C-3.62557202 4.66346144 -1.83652048 2.75478071 0 0 Z " fill="#233068" transform="translate(72,225)"/>
<path d="M0 0 C2.97 0.495 2.97 0.495 6 1 C5.39297368 7.6772895 3.22368606 13.70127996 1 20 C-0.98 19.34 -2.96 18.68 -5 18 C-3.35 12.06 -1.7 6.12 0 0 Z " fill="#24326A" transform="translate(117,254)"/>
<path d="M0 0 C5.1711115 4.54431011 8.44663108 10.15281368 12 16 C10.35 16.99 8.7 17.98 7 19 C2.85556181 13.86601899 -0.89842047 8.83096952 -4 3 C-2.68 2.01 -1.36 1.02 0 0 Z " fill="#202D66" transform="translate(219,237)"/>
<path d="M0 0 C0 0.99 0 1.98 0 3 C1.32 3.66 2.64 4.32 4 5 C3.67 6.98 3.34 8.96 3 11 C3.66 11 4.32 11 5 11 C4.67 11.66 4.34 12.32 4 13 C-3.42309859 13.48676056 -3.42309859 13.48676056 -6 11.3125 C-7.21157109 8.51074186 -7.60262465 7.01312323 -7 4 C-2.89189189 0 -2.89189189 0 0 0 Z " fill="#25346C" transform="translate(144,27)"/>
<path d="M0 0 C2.9375 0.25 2.9375 0.25 6 1 C6.66 1.99 7.32 2.98 8 4 C8.66 4 9.32 4 10 4 C9.3125 6.4375 9.3125 6.4375 8 9 C5.5 9.6875 5.5 9.6875 3 10 C2.34 10.66 1.68 11.32 1 12 C0.34 11.67 -0.32 11.34 -1 11 C-1 10.01 -1 9.02 -1 8 C-2.32 9.32 -3.64 10.64 -5 12 C-5.66 11.67 -6.32 11.34 -7 11 C-6.02262231 9.35310365 -5.0430468 7.70751146 -4.0625 6.0625 C-3.51722656 5.14597656 -2.97195312 4.22945313 -2.41015625 3.28515625 C-1 1 -1 1 0 0 Z " fill="#434F7E" transform="translate(41,95)"/>
<path d="M0 0 C1.32 0.66 2.64 1.32 4 2 C3.5020163 5.73487777 3.12508244 7.81237635 1 11 C-0.65 10.67 -2.3 10.34 -4 10 C-4.33 9.01 -4.66 8.02 -5 7 C-2 2 -2 2 0 0 Z " fill="#E9EAEC" transform="translate(213,48)"/>
<path d="M0 0 C0.99 0.33 1.98 0.66 3 1 C3.36075949 5.44936709 3.36075949 5.44936709 1.8125 7.8125 C-0.63344953 9.41501866 -2.13381787 9.4409511 -5 9 C-5.66 8.01 -6.32 7.02 -7 6 C-5.90716423 4.96704564 -4.80029421 3.94892165 -3.6875 2.9375 C-3.07261719 2.36902344 -2.45773438 1.80054688 -1.82421875 1.21484375 C-0.92123047 0.61349609 -0.92123047 0.61349609 0 0 Z " fill="#EEEFF0" transform="translate(59,216)"/>
<path d="M0 0 C0 0.66 0 1.32 0 2 C-0.99 2.495 -0.99 2.495 -2 3 C-1.01 3.66 -0.02 4.32 1 5 C-1.6875 5.8125 -1.6875 5.8125 -5 6 C-7.875 3.5625 -7.875 3.5625 -10 1 C-6.78548731 -0.60725635 -3.56387464 -0.05748185 0 0 Z " fill="#2C3A70" transform="translate(148,42)"/>
<path d="M0 0 C0.66 1.32 1.32 2.64 2 4 C0.02 4.99 0.02 4.99 -2 6 C-1.67 7.65 -1.34 9.3 -1 11 C-2.65 11.33 -4.3 11.66 -6 12 C-6.33 10.02 -6.66 8.04 -7 6 C-5.68 6.33 -4.36 6.66 -3 7 C-2.690625 6.21625 -2.38125 5.4325 -2.0625 4.625 C-1 2 -1 2 0 0 Z " fill="#687298" transform="translate(125,36)"/>
<path d="M0 0 C1.5 1.3125 1.5 1.3125 3 3 C3 3.99 3 4.98 3 6 C1.35 6.33 -0.3 6.66 -2 7 C-2.66 5.35 -3.32 3.7 -4 2 C-2.68 1.34 -1.36 0.68 0 0 Z " fill="#27336B" transform="translate(107,51)"/>
<path d="M0 0 C0.66 0 1.32 0 2 0 C2.75 2.1875 2.75 2.1875 3 5 C1.0625 7.8125 1.0625 7.8125 -1 10 C-2.25 3.375 -2.25 3.375 0 0 Z " fill="#202E65" transform="translate(261,122)"/>
<path d="M0 0 C0.33 0.99 0.66 1.98 1 3 C-6.11389522 10.66742597 -6.11389522 10.66742597 -11 12 C-7.49102731 7.81576108 -3.91939465 3.80411834 0 0 Z " fill="#E5E6EA" transform="translate(64,53)"/>
<path d="M0 0 C0.33 0 0.66 0 1 0 C1 2.31 1 4.62 1 7 C1.99 6.67 2.98 6.34 4 6 C2.6975667 8.90542812 1.29113732 10.8092961 -1 13 C-1.02708567 11.39592672 -1.04643483 9.7917215 -1.0625 8.1875 C-1.07410156 7.29417969 -1.08570313 6.40085937 -1.09765625 5.48046875 C-1 3 -1 3 0 0 Z " fill="#E3E4E8" transform="translate(236,57)"/>
<path d="M0 0 C0.99 0.33 1.98 0.66 3 1 C3.185625 2.2065625 3.185625 2.2065625 3.375 3.4375 C3.58125 4.283125 3.7875 5.12875 4 6 C4.66 6.33 5.32 6.66 6 7 C6 7.66 6 8.32 6 9 C4.35 8.67 2.7 8.34 1 8 C0.02391783 5.07175348 -0.08226668 3.04386724 0 0 Z " fill="#D0D3DB" transform="translate(263,122)"/>
<path d="M0 0 C2.625 0.375 2.625 0.375 5 1 C4.25 2.9375 4.25 2.9375 3 5 C0.875 5.75 0.875 5.75 -1 6 C-1.625 4.125 -1.625 4.125 -2 2 C-1.34 1.34 -0.68 0.68 0 0 Z " fill="#DDDFE4" transform="translate(70,64)"/>
<path d="M0 0 C2.50037734 2.17424117 3.43628586 3.73045798 4 7 C0.27566618 5.7874262 -3.37802806 4.49140021 -7 3 C-4.39417629 2.06934867 -3.35801776 1.85082593 -0.75 2.9375 C-0.1725 3.288125 0.405 3.63875 1 4 C0.67 2.68 0.34 1.36 0 0 Z " fill="#E0E1E7" transform="translate(207,246)"/>
<path d="M0 0 C0.33 0 0.66 0 1 0 C1.625 2.875 1.625 2.875 2 6 C1.34 6.66 0.68 7.32 0 8 C-0.69748583 9.31747324 -1.36959957 10.64914193 -2 12 C-2.33 9.36 -2.66 6.72 -3 4 C-2.34 4 -1.68 4 -1 4 C-0.67 2.68 -0.34 1.36 0 0 Z " fill="#D9DAE1" transform="translate(158,31)"/>
<path d="M0 0 C0.99 0 1.98 0 3 0 C2.43628586 3.26954202 1.50037734 4.82575883 -1 7 C-1.625 5.1875 -1.625 5.1875 -2 3 C-1.34 2.01 -0.68 1.02 0 0 Z " fill="#1D2C67" transform="translate(121,37)"/>
<path d="M0 0 C1.98 0.495 1.98 0.495 4 1 C3.67 2.32 3.34 3.64 3 5 C1.68 5 0.36 5 -1 5 C-0.67 3.35 -0.34 1.7 0 0 Z " fill="#E1E3E7" transform="translate(144,31)"/>
<path d="M0 0 C1.65 0 3.3 0 5 0 C4.67 1.32 4.34 2.64 4 4 C2.68 4 1.36 4 0 4 C0 2.68 0 1.36 0 0 Z " fill="#E8E9EC" transform="translate(271,124)"/>
<path d="M0 0 C1.9375 0.6875 1.9375 0.6875 4 2 C4.75 4.625 4.75 4.625 5 7 C1.26360784 5.75453595 0.81243487 4.36595047 -1 1 C-0.67 0.67 -0.34 0.34 0 0 Z " fill="#D9DBE2" transform="translate(82,238)"/>
<path d="M0 0 C0.99 0.99 1.98 1.98 3 3 C2.01 4.485 2.01 4.485 1 6 C-0.32 5.67 -1.64 5.34 -3 5 C-1.125 1.125 -1.125 1.125 0 0 Z " fill="#E6E7EA" transform="translate(55,81)"/>
<path d="M0 0 C0.99 0 1.98 0 3 0 C2.67 1.65 2.34 3.3 2 5 C0.68 4.34 -0.64 3.68 -2 3 C-1.34 2.01 -0.68 1.02 0 0 Z " fill="#ECEDEF" transform="translate(48,105)"/>
<path d="M0 0 C1.98 0.495 1.98 0.495 4 1 C4 1.99 4 2.98 4 4 C2.35 3.67 0.7 3.34 -1 3 C-0.67 2.01 -0.34 1.02 0 0 Z " fill="#EFEFF0" transform="translate(163,40)"/>
</svg>
